<?xml version="1.0" encoding="UTF-8"?><svg id="uuid-efae806c-cd17-44a1-affe-9917ed281473" xmlns="http://www.w3.org/2000/svg" viewBox="0 0 611.09 382.53"><defs><style>.uuid-cc786aca-d15e-45af-b664-a231f6d0bf78{fill:#00467f;}.uuid-cc786aca-d15e-45af-b664-a231f6d0bf78,.uuid-4e40b6d2-fd22-49fc-a5e8-2eec58b1f82c,.uuid-b2547011-f8e7-4670-b9be-53b75ca72300{stroke-width:0px;}.uuid-4e40b6d2-fd22-49fc-a5e8-2eec58b1f82c{fill:#feedbc;fill-rule:evenodd;}.uuid-b2547011-f8e7-4670-b9be-53b75ca72300{fill:#fff;}</style></defs><g id="uuid-1ed0759e-974a-4833-82dd-04c970d1298d"><rect class="uuid-cc786aca-d15e-45af-b664-a231f6d0bf78" width="611.09" height="382.53"/><path class="uuid-b2547011-f8e7-4670-b9be-53b75ca72300" d="M166.99,339.88c-9.88,3.45-28.96,7.95-48.34,7.95-25.39,0-45.08-6.15-59.76-19.74-14.74-13.5-23.3-35.18-23.17-60.71.27-53.82,37.63-83.48,87.16-83.48,18.28,0,32.43,3.47,39.58,6.71l-6.38,23.14c-7.92-3.39-17.8-5.93-33.03-5.93-32,0-56.04,18.8-56.04,58.58s22.06,58.24,52.11,58.24c9.27,0,15.95-1.16,19.18-2.63v-41.58h-26.51v-22.43h55.18v81.88Z"/><path class="uuid-b2547011-f8e7-4670-b9be-53b75ca72300" d="M200.62,315.7c8.94,4.9,22.97,9.09,36.79,9.09,18.91,0,29.42-8.92,29.42-22.07,0-12.4-8.56-19.6-27.86-27.49-25.38-10.02-41.96-24.8-41.96-46.14,0-25.99,21.79-45.81,57.24-45.81,16.24,0,28.68,3.52,36.26,7.31l-6.72,23.15c-5.71-2.99-16.2-6.99-30.17-6.99-18.45,0-26.51,9.89-26.51,19.41,0,12.38,8.95,18.14,30.1,27.04,27.25,11.44,39.8,25.93,39.8,47.3,0,26.74-21.06,47.96-61.01,47.96-16.48,0-33.43-4.41-41.55-9.17l6.18-23.59Z"/><path class="uuid-b2547011-f8e7-4670-b9be-53b75ca72300" d="M328.24,187.61c10.53-1.85,24.64-3.24,42.93-3.24,21.3,0,37.27,4.09,47.9,12.85,9.89,7.93,15.79,20.52,15.79,35.24,0,15.54-4.97,27.69-13.95,36.31-11.79,11.57-30.24,17.09-50.02,17.09-4.9,0-9.27-.2-12.95-.85v61.27h-29.71v-158.66ZM357.94,262.57c3.36.79,7.41,1.07,12.64,1.07,21.63,0,34.54-11.1,34.54-29.84,0-16.95-11.18-27.44-31.74-27.44-7.11,0-12.44.64-15.44,1.34v54.87Z"/><path class="uuid-b2547011-f8e7-4670-b9be-53b75ca72300" d="M574.38,342.18c-6.66,3.13-20.72,6.28-38.51,6.28-49.55,0-79.29-31.41-79.29-80.59,0-55.57,37.8-84.59,83.41-84.59,17.69,0,30.18,3.37,35.6,6.2l-6.23,22.86c-6.77-2.92-15.98-5.4-28.14-5.4-29.91,0-53.12,19.14-53.12,59.38,0,37.8,20.49,58.16,52.88,58.16,10.72,0,21.87-2.06,28.84-4.93l4.56,22.63Z"/><path class="uuid-4e40b6d2-fd22-49fc-a5e8-2eec58b1f82c" d="M92.65,32.19l8.37,12.08,12.56-7.63c1.43-.87,3.29-.04,3.6,1.6l2.73,14.44,14.58-1.86c1.66-.21,3.02,1.3,2.63,2.93l-3.38,14.31,14.08,4.23c1.6.48,2.23,2.41,1.22,3.74l-8.9,11.7,11.14,9.59c1.27,1.09,1.05,3.11-.41,3.91l-12.89,7.06,6.28,13.29c.71,1.51-.3,3.27-1.97,3.41l-14.65,1.21.33,14.7c.04,1.67-1.61,2.87-3.18,2.31l-13.87-4.85-5.68,13.56c-.65,1.54-2.63,1.96-3.85.82l-10.7-10.08-10.7,10.08c-1.22,1.15-3.2.72-3.85-.82l-5.68-13.56-13.87,4.85c-1.58.55-3.22-.64-3.18-2.31l.33-14.7-14.65-1.21c-1.67-.14-2.68-1.9-1.97-3.41l6.28-13.29-12.89-7.06c-1.47-.8-1.68-2.82-.41-3.91l11.14-9.59-8.9-11.7c-1.01-1.33-.38-3.26,1.22-3.74l14.08-4.23-3.38-14.31c-.38-1.63.98-3.14,2.63-2.93l14.58,1.86,2.73-14.44c.31-1.64,2.17-2.47,3.6-1.6l12.56,7.63,8.37-12.08c.95-1.37,2.98-1.37,3.94,0Z"/></g></svg>