<?xml version="1.0" encoding="UTF-8" standalone="no"?>
<!DOCTYPE svg PUBLIC "-//W3C//DTD SVG 1.1//EN" "http://www.w3.org/Graphics/SVG/1.1/DTD/svg11.dtd">
<svg width="100%" height="100%" viewBox="0 0 230 144" version="1.1" xmlns="http://www.w3.org/2000/svg" xmlns:xlink="http://www.w3.org/1999/xlink" xml:space="preserve" xmlns:serif="http://www.serif.com/" style="fill-rule:evenodd;clip-rule:evenodd;stroke-linejoin:round;stroke-miterlimit:2;">
    <g transform="matrix(1,0,0,1,-1249.76,-396.658)">
        <g transform="matrix(1,0,0,1,865.174,144.501)">
            <g>
                <g>
                    <g transform="matrix(0.846733,0,0,0.851298,717.456,263.149)">
                        <path d="M-121.701,41.62L-376.612,41.62L-376.612,-12.901L-377.075,-12.901L-377.075,155.974L-379.008,155.974L-378.987,155.977L-135.836,155.977C-128.035,155.977 -121.701,149.677 -121.701,141.917L-121.701,41.62Z" style="fill:rgb(201,204,209);"/>
                    </g>
                    <g transform="matrix(1.00303,0,0,1.00343,379.942,246.309)">
                        <path d="M18.568,5.837L221.824,5.837L223.303,5.986L18.568,5.986L18.568,52.092L233.588,52.092L233.588,16.085L233.757,17.765L233.757,52.092L233.807,52.092L233.807,15.961C233.105,10.635 228.856,6.441 223.512,5.828L18.568,5.828L18.568,5.837Z" style="fill:rgb(244,244,244);"/>
                    </g>
                    <g transform="matrix(1.00303,0,0,1.00343,379.942,246.309)">
                        <path d="M233.757,52.092L233.757,17.765L233.588,16.085L233.588,52.092L233.757,52.092Z" style="fill:rgb(244,244,244);fill-opacity:0.63;"/>
                    </g>
                    <g transform="matrix(1.00303,0,0,1.00343,379.942,246.309)">
                        <path d="M18.568,5.837L18.568,5.986L223.303,5.986L221.824,5.837L18.568,5.837Z" style="fill:rgb(244,244,244);fill-opacity:0.63;"/>
                    </g>
                    <g transform="matrix(1.05347,0,0,0.90173,379.544,248.259)">
                        <path d="M18.374,163.763L18.374,4.333L16.755,4.333C10.149,4.333 4.786,10.28 4.786,17.606L4.786,150.492C4.786,157.811 10.14,163.754 16.737,163.763L18.374,163.763Z" style="fill:rgb(110,111,114);"/>
                    </g>
                    <g transform="matrix(1.03557,0,0,1.09864,377.79,241.389)">
                        <path d="M58.416,57.855C58.416,56.601 57.336,55.583 56.006,55.583L32.343,55.583C31.013,55.583 29.933,56.601 29.933,57.855L29.933,72.795C29.933,74.049 31.013,75.067 32.343,75.067L56.006,75.067C57.336,75.067 58.416,74.049 58.416,72.795L58.416,57.855Z" style="fill:rgb(254,237,188);"/>
                    </g>
                    <rect x="404.35" y="257.104" width="22.796" height="23.072" style="fill:rgb(0,84,142);"/>
                </g>
            </g>
        </g>
    </g>
</svg>
