<?xml version="1.0" encoding="utf-8"?>
<!-- Generator: Adobe Illustrator 27.2.0, SVG Export Plug-In . SVG Version: 6.00 Build 0)  -->
<svg version="1.1" xmlns="http://www.w3.org/2000/svg" xmlns:xlink="http://www.w3.org/1999/xlink" x="0px" y="0px"
	 viewBox="0 0 853.6 225" style="enable-background:new 0 0 853.6 225;" xml:space="preserve">
<style type="text/css">
	.st0{display:none;}
	.st1{display:inline;}
	.st2{fill:none;stroke:#000000;stroke-width:2;stroke-miterlimit:10;}
	.st3{fill:#8A2432;}
	.st4{fill:#00548E;}
	.st5{fill:#FFFFFF;}
	.st6{fill:#6D6E71;}
</style>
<g id="Layer_3" class="st0">
	<g id="aJUf6Q.tif" class="st1">
		
			<image style="overflow:visible;" width="734" height="202" id="Layer_0_00000026150844052076187250000001113072069583280313_" xlink:href="1B9B93C260531DA0.png"  transform="matrix(1.1834 0 0 1.1834 -3.0734 -17.6931)">
		</image>
	</g>
</g>
<g id="Layer_4">
	<line class="st2" x1="535.9" y1="75.1" x2="535.9" y2="166.7"/>
</g>
<g id="Layer_5">
	<g>
		<path class="st3" d="M588.1,103.3v50.3l0.1,6.6h-8.5l0.1-6.6v-50.3h-10.3v-7.5h28.9v7.5H588.1z"/>
		<path class="st3" d="M614.8,132.7v20.9l0.1,6.6h-8.6l0.1-6.6v-51.2l-0.1-6.6h12.6c13,0,16.2,8.3,16.2,18.4v0.2
			c0,7.1-2,13.2-7.5,16.3l8.7,29.4h-9.1l-7.7-27.4H614.8z M614.8,125.4h3.5c6.2,0,7.9-4.9,7.9-10.9v-0.3c0-6-1.5-11-8.4-11h-3.1
			V125.4z"/>
		<path class="st3" d="M650.8,160.1h-8.7l10.4-64.3h11.6l10.3,64.3h-8.5l-2.2-14.6h-10.9L650.8,160.1z M654,137.8h8.7l-3.1-22
			c-0.4-2.9-0.8-6.7-1-8.8h-0.5c-0.2,2.1-0.5,5.9-1,8.8L654,137.8z"/>
		<path class="st3" d="M693.3,95.8l-0.1,6.6v51.2l0.1,6.6h-8.6l0.1-6.6v-51.2l-0.1-6.6H693.3z"/>
		<path class="st3" d="M705.7,153.6v-51.2l-0.1-6.6h8.7l12,33.7c1.2,3.3,2,5.8,2.5,8h0.3c-0.1-2.3-0.3-5.9-0.3-8.5v-26.7l-0.2-6.6
			h8.4l-0.1,6.6v51.2l0.1,6.6h-7.8l-12.9-36.4c-1.3-3.4-1.9-5.8-2.5-8h-0.3c0,2.3,0.3,5.9,0.3,8.5v29.4l0.1,6.6h-8.3L705.7,153.6z"
			/>
		<path class="st3" d="M755.2,95.8l-0.1,6.6v51.2l0.1,6.6h-8.6l0.1-6.6v-51.2l-0.1-6.6H755.2z"/>
		<path class="st3" d="M764.9,153.6v-51.2l-0.1-6.6h8.7l12,33.7c1.2,3.3,2,5.8,2.5,8h0.3c-0.1-2.3-0.3-5.9-0.3-8.5v-26.7l-0.2-6.6
			h8.4l-0.1,6.6v51.2l0.1,6.6h-7.8l-12.9-36.4c-1.3-3.4-1.9-5.8-2.5-8h-0.3c0,2.3,0.3,5.9,0.3,8.5v29.4l0.1,6.6h-8.3L764.9,153.6z"
			/>
		<path class="st3" d="M822.7,127.2h14.6v32.9h-4l-1.9-5.4h-0.2c-1.9,4.4-5,6.3-9.7,6.3c-4,0-6.7-1.4-8.7-3.2
			c-3.2-3-4.7-7.6-4.7-19.3v-21.3c0-12.1,1.7-16.5,4.7-19.3c2.2-2.1,5.3-3.3,9.6-3.3c3.9,0,7.2,1,9.7,3.3c3,2.8,4.8,7.2,4.8,18v0.2
			h-8.6V116c0-7.6,0-13.3-5.8-13.3c-5.8,0-5.8,5.8-5.8,12.8v24.9c0,6.8,0,12.8,5.9,12.8c6.4,0,6.4-7.2,6.4-14.4v-4h-6.2V127.2z"/>
	</g>
</g>
<g id="Layer_1">
	<rect x="14.4" y="21.5" class="st4" width="157.5" height="157.6"/>
	<g>
		<polygon class="st5" points="141.4,128.3 137.9,119.7 134.1,128.3 125.5,128.3 137.6,101.8 149.7,128.3 		"/>
		<polygon class="st5" points="130.9,134.1 126.5,144.2 137.3,138.6 143.2,143.3 122.2,153.6 113.9,153.6 125,128.7 		"/>
		<polygon class="st5" points="160.6,153.6 151.6,153.6 143.5,134.3 149.3,128.6 		"/>
	</g>
	<path class="st5" d="M107.5,103.4c0,0-1.2,7.5-1.1,7.8c-4.7-2.3-11.3-3.7-15.7-1.3c-2.2,1.2-3,4.6-2,7.2c7.2,7.9,20,6,20.7,21.3
		c0.2,4.9-2.4,8.6-4.8,10.9c-6.7,5.3-16.5,4.9-24.3,2.1l0.8-8.3c4.5,2.4,12.9,4.7,17.8,0.1c1.7-1.6,2.1-4.2,1.9-6.9
		c-2.8-8.1-24.9-7.8-20.8-24.7c1-4,4.4-7.6,8.5-9.1C94.2,100.1,101.9,101.6,107.5,103.4z"/>
	<path class="st5" d="M66.9,104.4l-0.3,8.3c-6.1-3.9-17-5.4-24.1-1.2c-6.3,3.7-8.3,9.1-8.4,15.8c-0.1,7.1,2.7,13.7,9.7,17.4
		c4.6,2.4,15.3,1.2,15.3,1.2L59,133.2l-9.2,0l0.1-7.8h17.8l0,26.6c-9.8,2.9-22.7,3.1-31.3-2.7c-9.2-6.3-10.8-13.9-10.8-22
		c0-10.8,6.5-22.3,19.2-24.8C53.3,100.9,61.2,102.2,66.9,104.4z"/>
	<g>
		<path class="st3" d="M203.7,140.2c1.4,3.8,4.9,11.8,16.2,11.8c8.2,0,14-4.5,14-11.1c0-6.6-7-9.8-14.7-12.5
			c-6.7-2.3-15.3-5.4-15.3-13.8c0-7.3,5.7-11.8,15.1-11.8c9.4,0,13.3,5,16.2,8.9l-2.3,3.2c-1.4-2.6-5-9.2-13.5-9.2
			c-7.3,0-11.9,3.5-11.9,9c0,4.3,3.2,6.8,13.3,10.4c9.6,3.4,16.7,7,16.7,15.4c0,8.8-7.2,14.7-17.8,14.7c-11.9,0-17.6-9.2-18.8-12.7
			L203.7,140.2z"/>
		<path class="st3" d="M246.7,126.5c1.9-3.5,4.5-8.1,11.2-8.1c7.2,0,9.2,5.6,10.1,8.3c1.1-2.5,3.4-8.3,11.4-8.3
			c6.5,0,10.7,5.2,10.7,13v22.2h-3v-20.8c0-7.4-3.1-11.8-8.3-11.8c-5.9,0-10.4,5.1-10.4,11.9v20.7h-3v-22.8c0-5.6-3.3-9.9-7.9-9.9
			c-5.9,0-10.8,5.5-10.8,11.9v20.7h-3v-34h3V126.5z"/>
		<path class="st3" d="M322.5,147.8c0,2.3,1,3.9,2.6,3.9c0.4,0,1-0.1,1.7-0.3v2.8c-1,0.3-1.7,0.3-2.2,0.3c-2.8,0-4.7-2.3-5-6.5
			c-1.7,2.2-5,6.4-12.5,6.4c-6.1,0-11-4.7-11-10.5c0-9,9.8-11,14.5-11.8c5.5-1,6.3-1.3,9-3.4c0.2-6.8-5.5-7.4-8.7-7.4
			c-6.4,0-10.1,2.3-11.6,7.5l-2.3-2c1.1-2.8,3.4-8.1,14.2-8.1c4,0,7.2,1.1,9.3,3.1c1.7,1.7,2.1,3.2,2.1,7.2V147.8z M319.5,131.9
			c-3.2,1.7-4.2,2-8.7,2.8c-8.8,1.5-11.6,5-11.6,8.9c0,4.9,3.5,8.2,8.8,8.2c6.6,0,11.6-4.5,11.6-10.4V131.9z"/>
		<path class="st3" d="M334.9,131.2c1.3-4.3,3.9-12.7,10.6-12.7c1.2,0,2.1,0.2,3.9,1l-0.2,3.4c-1.8-1-2.8-1.4-4.1-1.4
			c-8.3,0-10,14.3-10,18.1v13.9h-3v-34h2.8V131.2z"/>
		<path class="st3" d="M361.6,104.4v15.1h8.5v2.8h-8.5v25.1c0,3,1.4,4.3,4.8,4.3c0.8,0,1.6-0.1,3.5-0.4v2.5c-2,0.3-3.4,0.5-4.4,0.5
			c-4.5,0-7-2.1-7-6.1v-26h-7v-2.8h7V106L361.6,104.4z"/>
		<path class="st3" d="M377.2,103.9h18.6c9,0,15.2,5.7,15.2,13.9c0,8.7-5.9,13.9-15.8,13.9h-14.7v21.8h-3.3V103.9z M380.5,106.7
			v22.2h13.7c8.4,0,13.4-4.1,13.4-11.2c0-6.5-4.9-11-12.1-11H380.5z"/>
		<path class="st3" d="M441.1,147.8c0,2.3,1,3.9,2.6,3.9c0.4,0,1-0.1,1.7-0.3v2.8c-1,0.3-1.7,0.3-2.2,0.3c-2.8,0-4.7-2.3-5-6.5
			c-1.7,2.2-5,6.4-12.5,6.4c-6.1,0-11-4.7-11-10.5c0-9,9.8-11,14.5-11.8c5.5-1,6.3-1.3,9-3.4c0.2-6.8-5.5-7.4-8.7-7.4
			c-6.4,0-10.1,2.3-11.6,7.5l-2.3-2c1.1-2.8,3.4-8.1,14.2-8.1c4,0,7.2,1.1,9.3,3.1c1.7,1.7,2.1,3.2,2.1,7.2V147.8z M438.2,131.9
			c-3.2,1.7-4.2,2-8.7,2.8c-8.8,1.5-11.6,5-11.6,8.9c0,4.9,3.5,8.2,8.8,8.2c6.6,0,11.6-4.5,11.6-10.4V131.9z"/>
		<path class="st3" d="M446.6,119.5h2.8l11.6,31.1l10.1-31.1h2.7l-12.2,38.3c-2.1,6.8-4.5,8.8-10.3,8.8h-2.9l0.1-2.8h3.2
			c5,0,5.9-2.2,8.1-9.2L446.6,119.5z"/>
		<path class="st3" d="M488.2,109c0,4.3-3.5,7.7-7.7,7.7c-4.3,0-7.7-3.5-7.7-7.7c0-4.3,3.5-7.7,7.7-7.7
			C484.8,101.3,488.2,104.8,488.2,109z M474,109c0,3.6,2.9,6.5,6.5,6.5c3.5,0,6.4-2.9,6.4-6.5c0-3.5-2.9-6.4-6.4-6.4
			C476.9,102.6,474,105.5,474,109z M477.1,113.3V105h2.9c1.3,0,1.7,0,2.3,0.3c0.7,0.3,1.3,1.1,1.3,1.9c0,1.3-1,2.3-2.4,2.4
			c0.6,0.3,1.1,0.8,1.9,2.1l1,1.6h-1.6l-0.7-1.3c-1.1-1.9-1.4-2.2-2.5-2.2h-0.8v3.5H477.1z M478.4,108.6h1.6c1.4,0,2-0.4,2-1.3
			c0-0.9-0.6-1.2-2.1-1.2h-1.5V108.6z"/>
	</g>
</g>
<g id="Layer_2">
	<g>
		<path class="st6" d="M203.6,192.9c0.1,1.5,0.4,2.3,1.1,3.1c0.8,0.8,1.9,1.1,3.4,1.1c2.5,0,4.1-1.5,4.1-3.8c0-1.5-0.8-2.6-3.4-4.3
			c-2-1.3-3.8-2.7-3.8-5.7c0-3,2.5-5.2,6-5.2c2.1,0,3.8,0.7,4.9,2.1c0.4,0.5,0.6,0.9,0.9,1.9l-2.1,1.6c-0.2-2-1.7-3.2-4-3.2
			c-2,0-3.3,1.1-3.3,2.8c0,1.1,0.8,2,2.9,3.3c2.2,1.3,4.5,3.2,4.5,6.4c0,3.9-2.9,6.4-7.1,6.4c-1.8,0-3.4-0.5-4.5-1.4
			c-1-0.8-1.3-1.5-1.8-3.4L203.6,192.9z"/>
		<path class="st6" d="M219.8,185h2.3l-2,8c-0.2,0.7-0.3,1.4-0.3,1.8c0,1.4,1,2.3,2.4,2.3c2,0,3.6-1.5,4.2-4l2-8.2h2.3l-3.4,13.8
			h-2.3l0.5-2.2c-0.8,0.9-2.3,2.4-4.6,2.4c-2.1,0-3.6-1.5-3.6-3.7c0-0.6,0.2-1.5,0.4-2.5L219.8,185z"/>
		<path class="st6" d="M235.4,187.1c1.3-1.8,2.3-2.4,3.9-2.4c2.4,0,4.1,2.1,4.1,5.2c0,5-3,9.3-6.5,9.3c-2.8,0-3.4-1.9-3.7-2.9l-2,8
			h-2.2l4.7-19.2h2.3L235.4,187.1z M241,189.8c0-1.9-1-3.2-2.6-3.2c-3.3,0-4.6,6.2-4.6,7.8c0,1.7,1,2.9,2.5,2.9
			C238.8,197.3,241,193.8,241,189.8z"/>
		<path class="st6" d="M249,187.1c1.3-1.8,2.3-2.4,3.9-2.4c2.4,0,4.1,2.1,4.1,5.2c0,5-3,9.3-6.5,9.3c-2.8,0-3.4-1.9-3.7-2.9l-2,8
			h-2.2l4.7-19.2h2.3L249,187.1z M254.6,189.8c0-1.9-1-3.2-2.6-3.2c-3.3,0-4.6,6.2-4.6,7.8c0,1.7,1,2.9,2.5,2.9
			C252.4,197.3,254.6,193.8,254.6,189.8z"/>
		<path class="st6" d="M258,193.5c0-5,3.5-8.8,8-8.8c3.5,0,5.7,2.2,5.7,5.9c0,4.8-3.5,8.7-7.8,8.7C260.2,199.2,258,197.1,258,193.5z
			 M269.3,190.4c0-2.3-1.3-3.8-3.3-3.8c-3.2,0-5.5,3-5.5,7c0,2.4,1.3,3.8,3.3,3.8C266.9,197.4,269.3,194.4,269.3,190.4z"/>
		<path class="st6" d="M275,185h2.3l-1.4,5.6l2.4-4.6c0.5-0.9,1.6-1.2,1.9-1.2c0.3,0,0.7,0.1,1.3,0.4l-0.4,2.3
			c-0.6-0.3-0.9-0.4-1.3-0.4c-1,0-1.8,0.7-2.7,2.5c-0.9,1.6-1.8,3.6-2,4.7l-1.1,4.5h-2.3L275,185z"/>
		<path class="st6" d="M285.9,179.5l2.5-0.7l-1.7,6.2h2l-0.4,1.8h-2.1l-2.4,8.7c-0.1,0.3-0.1,0.5-0.1,0.7c0,0.7,0.5,1.1,1.5,1.1
			c0.7,0,1.7-0.2,2.6-0.5l-0.5,2l-0.6,0.1c-1,0.3-1.6,0.3-2.5,0.3c-2,0-3-0.8-3-2.4c0-0.4,0.1-0.9,0.2-1.3l2.5-8.7h-1.9l0.5-1.8h2
			L285.9,179.5z"/>
		<path class="st6" d="M292.1,185h2.3l-3.4,13.8h-2.3L292.1,185z M293.8,179.3h2l-0.6,2.6h-2L293.8,179.3z"/>
		<path class="st6" d="M299,187.3c1.1-1.1,2.5-2.5,4.5-2.5c2.2,0,3.7,1.5,3.7,3.6c0,0.4-0.1,0.8-0.2,1.2l-2.2,9.2h-2.3l2.1-8.9
			c0.1-0.4,0.1-0.7,0.1-1.1c0-1.4-0.9-2.2-2.4-2.2c-2,0-3.6,1.7-4.3,4.3l-1.9,7.9h-2.3l3.4-13.8h2.2L299,187.3z"/>
		<path class="st6" d="M316,197c-1.1,1.5-2.3,2.2-3.7,2.2c-2.5,0-4.2-2.2-4.2-5.5c0-4.9,3.1-9.1,6.7-9.1c1.8,0,3,1,3.5,2.9l0.7-2.6
			h2.3l-3.8,15.2c-0.6,2.5-2.6,3.9-5.5,3.9c-2.8,0-4.5-1-5.5-3.2l2-0.8c0.8,1.5,1.7,2.2,3.5,2.2c1.8,0,2.9-0.8,3.3-2.5L316,197z
			 M316.6,194.3c0.6-1.7,1.1-3.8,1.1-5c0-1.6-1-2.8-2.5-2.8c-3.3,0-4.6,5.1-4.6,7.3c0,1.7,0.7,3.4,2.6,3.4
			C314.6,197.2,315.8,196.2,316.6,194.3z"/>
		<path class="st6" d="M326.8,185h2l1.1,10.6l5.3-10.6h2.2l-7.6,15.3c-1.3,2.5-2,3.9-5,3.9c-0.6,0-1,0-1.9-0.1l0.5-1.8
			c0.5,0.1,0.9,0.1,1.1,0.1c2,0,2.4-0.8,3.6-3.4L326.8,185z"/>
		<path class="st6" d="M336.4,193.5c0-5,3.5-8.8,8-8.8c3.5,0,5.7,2.2,5.7,5.9c0,4.8-3.5,8.7-7.8,8.7
			C338.5,199.2,336.4,197.1,336.4,193.5z M347.6,190.4c0-2.3-1.3-3.8-3.3-3.8c-3.2,0-5.5,3-5.5,7c0,2.4,1.3,3.8,3.3,3.8
			C345.3,197.4,347.6,194.4,347.6,190.4z"/>
		<path class="st6" d="M353.2,185h2.3l-2,8c-0.2,0.7-0.3,1.4-0.3,1.8c0,1.4,1,2.3,2.4,2.3c2,0,3.6-1.5,4.2-4l2-8.2h2.3l-3.4,13.8
			h-2.3l0.5-2.2c-0.8,0.9-2.3,2.4-4.6,2.4c-2.1,0-3.6-1.5-3.6-3.7c0-0.6,0.2-1.5,0.4-2.5L353.2,185z"/>
		<path class="st6" d="M366.7,185h2.3l-1.4,5.6l2.4-4.6c0.5-0.9,1.6-1.2,1.9-1.2c0.3,0,0.7,0.1,1.3,0.4l-0.4,2.3
			c-0.6-0.3-0.9-0.4-1.3-0.4c-1,0-1.8,0.7-2.7,2.5c-0.9,1.6-1.8,3.6-2,4.7l-1.1,4.5h-2.3L366.7,185z"/>
		<path class="st6" d="M381.3,187.2c0.8-0.9,2.3-2.4,4.4-2.4c1.9,0,3.2,1,3.5,3c0.6-0.7,2.4-3,4.9-3c2,0,3.5,1.4,3.5,3.4
			c0,0.3-0.1,0.7-0.1,1l-2.4,9.7h-2.3l2.2-9.1c0.1-0.4,0.1-0.7,0.1-1.1c0-1.3-0.8-2-2.3-2c-2,0-3.5,1.4-4,3.7l-2.1,8.5h-2.3l2.3-9.3
			c0.1-0.3,0.1-0.5,0.1-0.8c0-1.3-0.9-2.1-2.4-2.1c-2,0-3.5,1.5-4.1,4.1l-2,8h-2.3l3.4-13.8h2.2L381.3,187.2z"/>
		<path class="st6" d="M401.6,185h2.3l-3.4,13.8h-2.3L401.6,185z M403.4,179.3h2l-0.6,2.6h-2L403.4,179.3z"/>
		<path class="st6" d="M405,194.5c0.6,1.5,1.2,2.8,3.9,2.8c2,0,3.1-0.8,3.1-2c0-1.1-0.7-1.7-2.7-2.4c-1.5-0.5-3.9-1.4-3.9-4.1
			c0-2.4,2.1-4.2,5-4.2c3.3,0,4.5,2.2,4.9,3.1l-1.9,1c-1-1.5-1.9-2.1-3.4-2.1c-1.4,0-2.5,0.9-2.5,2c0,1,0.7,1.6,2.7,2.3
			c1.1,0.4,4.1,1.4,4.1,4.2c0,2.6-2.1,4.2-5.5,4.2c-4.2,0-5-1.7-5.7-3.9L405,194.5z"/>
		<path class="st6" d="M416.8,194.5c0.6,1.5,1.2,2.8,3.9,2.8c2,0,3.1-0.8,3.1-2c0-1.1-0.7-1.7-2.7-2.4c-1.5-0.5-3.9-1.4-3.9-4.1
			c0-2.4,2.1-4.2,5-4.2c3.3,0,4.5,2.2,4.9,3.1l-1.9,1c-1-1.5-1.9-2.1-3.4-2.1c-1.4,0-2.5,0.9-2.5,2c0,1,0.7,1.6,2.7,2.3
			c1.1,0.4,4.1,1.4,4.1,4.2c0,2.6-2.1,4.2-5.5,4.2c-4.2,0-5-1.7-5.7-3.9L416.8,194.5z"/>
		<path class="st6" d="M431.2,185h2.3l-3.4,13.8h-2.3L431.2,185z M432.9,179.3h2l-0.6,2.6h-2L432.9,179.3z"/>
		<path class="st6" d="M433.7,193.5c0-5,3.5-8.8,8-8.8c3.5,0,5.7,2.2,5.7,5.9c0,4.8-3.5,8.7-7.8,8.7
			C435.9,199.2,433.7,197.1,433.7,193.5z M445,190.4c0-2.3-1.3-3.8-3.3-3.8c-3.2,0-5.5,3-5.5,7c0,2.4,1.3,3.8,3.3,3.8
			C442.6,197.4,445,194.4,445,190.4z"/>
		<path class="st6" d="M452.5,187.3c1.1-1.1,2.5-2.5,4.5-2.5c2.2,0,3.7,1.5,3.7,3.6c0,0.4-0.1,0.8-0.2,1.2l-2.2,9.2h-2.3l2.1-8.9
			c0.1-0.4,0.1-0.7,0.1-1.1c0-1.4-0.9-2.2-2.4-2.2c-2,0-3.6,1.7-4.3,4.3l-1.9,7.9h-2.3l3.4-13.8h2.2L452.5,187.3z"/>
	</g>
	<rect x="-11.3" y="96.8" style="fill:none;" width="0" height="20.9"/>
</g>
</svg>
